#!OML:ASF H:\Terrain\Patient Classification 1\Takeo\Monday\TakeoMonday.ASF
:FULLY-SPECIFIED
:DEGREES
1900
root 10.1687 15.8052 -2.83414 8.57901 9.78507 13.8224
lowerback 28.8292 3.79968 9.35186
upperback 13.2412 7.59719 7.88168
thorax -0.742397 3.95974 1.26045
lowerneck -20.0919 -0.882642 0.236874
upperneck -1.75113 -0.753793 -8.47599
head 2.60725 -0.748719 -2.72328
rclavicle -1.11319e-013 -8.5875e-014
rhumerus 25.6907 62.1122 -98.6772
rradius 36.1917
rwrist -63.1117
rhand -19.2769 -6.63294
rfingers 7.12502
rthumb 7.03783 -36.4959
lclavicle -1.11319e-013 -8.5875e-014
lhumerus 54.4736 33.6831 114.791
lradius 1.95403
lwrist -16.4276
lhand -46.7203 51.2391
lfingers 7.12502
lthumb -19.4384 440.287
rfemur -25.3225 -20.2397 8.79591
rtibia 70.4346
rfoot -44.9809 -31.5518
rtoes 1.40936
lfemur -46.178 -8.59712 -36.1584
ltibia 52.5265
lfoot -5.65406 -9.8292
ltoes 9.05436
1901
root 10.1498 15.8208 -2.82085 8.48371 10.3539 13.3799
lowerback 28.7241 3.64402 9.50262
upperback 13.199 7.43992 7.89831
thorax -0.727795 3.89036 1.24446
lowerneck -20.0991 -0.83175 0.165506
upperneck -1.80689 -0.675664 -8.37514
head 2.59413 -0.702375 -2.67403
rclavicle 5.725e-014 8.90555e-014
rhumerus 25.709 62.1704 -98.3121
rradius 36.4946
rwrist -61.8336
rhand -18.7513 -10.3262
rfingers 7.12502
rthumb 7.54522 -40.1716
lclavicle 5.725e-014 8.90555e-014
lhumerus 54.4334 34.486 115.496
lradius 2.94514
lwrist -16.9156
lhand -46.5558 50.082
lfingers 7.12502
lthumb -19.2802 439.146
rfemur -24.8601 -20.5558 9.42127
rtibia 69.9453
rfoot -45.3529 -31.6125
rtoes 0.155453
lfemur -46.0206 -9.1168 -35.5157
ltibia 52.4429
lfoot -5.77695 -9.79283
ltoes 9.09124
1902
root 10.1294 15.8318 -2.80965 8.5111 10.7689 13.1938
lowerback 28.6565 3.58002 9.5537
upperback 13.1115 7.37183 7.76097
thorax -0.773107 3.86211 1.08328
lowerneck -20.3323 -0.858264 -0.13071
upperneck -1.63774 -0.635918 -8.07942
head 2.67957 -0.676871 -2.53537
rclavicle 8.5875e-014 3.18055e-014
rhumerus 26.1868 62.2865 -97.4366
rradius 36.7321
rwrist -60.5921
rhand -17.9927 -15.5316
rfingers 7.12502
rthumb 8.27736 -45.3495
lclavicle 8.5875e-014 3.18055e-014
lhumerus 54.0315 35.0323 116.033
lradius 4.64011
lwrist -16.6608
lhand -45.6015 50.8279
lfingers 7.12502
lthumb -18.3624 439.981
rfemur -24.6366 -20.887 9.76703
rtibia 69.5761
rfoot -45.6989 -31.4131
rtoes -0.657251
lfemur -45.9622 -9.52775 -35.168
ltibia 52.3773
lfoot -5.93633 -9.76296
ltoes 8.52207
1903
root 10.1051 15.8403 -2.7978 8.64411 11.0296 13.429
lowerback 28.5754 3.59066 9.09857
upperback 13.0352 7.26028 7.41786
thorax -0.847937 3.79967 0.982199
lowerneck -20.2106 -0.694979 -0.107251
upperneck -1.73105 -0.436621 -7.93948
head 2.64048 -0.563842 -2.47775
rclavicle -6.67916e-014 2.22639e-014
rhumerus 26.8507 62.3851 -96.6461
rradius 36.9236
rwrist -59.5461
rhand -17.3924 -17.836
rfingers 7.12502
rthumb 8.8567 -47.6301
lclavicle -6.67916e-014 2.22639e-014
lhumerus 53.8547 35.6231 116.533
lradius 6.25538
lwrist -15.8742
lhand -44.2549 48.728
lfingers 7.12502
lthumb -17.0666 437.998
rfemur -24.5197 -21.2881 9.62991
rtibia 69.2746
rfoot -45.4174 -31.3824
rtoes -0.241004
lfemur -45.8771 -9.85697 -35.282
ltibia 52.305
lfoot -6.09989 -9.7143
ltoes 7.75092
1904
root 10.0823 15.852 -2.78978 8.60001 11.4684 13.08
lowerback 28.4428 3.45918 9.15689
upperback 12.9929 7.0985 7.31458
thorax -0.819346 3.72841 0.887616
lowerneck -18.8522 -0.43374 -0.581476
upperneck -2.97878 -0.10495 -7.27079
head 2.31963 -0.294874 -2.32168
rclavicle -7.63333e-014 -5.40694e-014
rhumerus 27.5235 62.5649 -95.6839
rradius 37.2493
rwrist -58.4708
rhand -17.9373 -15.6093
rfingers 7.12502
rthumb 8.33089 -45.425
lclavicle -7.63333e-014 -5.40694e-014
lhumerus 53.7976 36.3572 117.271
lradius 7.6861
lwrist -15.4078
lhand -43.6182 45.2183
lfingers 7.12502
lthumb -16.4537 434.541
rfemur -24.2185 -21.7053 10.1409
rtibia 68.8881
rfoot -44.6777 -31.6341
rtoes 2.70531
lfemur -45.7834 -10.2974 -34.7368
ltibia 52.2431
lfoot -6.29817 -9.73616
ltoes 5.16234
1905
root 10.0661 15.8688 -2.78482 8.40009 11.9785 12.2845
lowerback 28.3062 3.26059 9.71284
upperback 12.9454 6.97989 7.38334
thorax -0.744946 3.69246 0.701838
lowerneck -20.211 -0.570168 -0.29962
upperneck -1.66407 -0.226084 -7.76544
head 2.66817 -0.450405 -2.37655
rclavicle -7.31528e-014 -2.54444e-014
rhumerus 28.0458 62.7433 -94.6568
rradius 37.7031
rwrist -57.9664
rhand -20.1659 -10.0632
rfingers 7.12502
rthumb 6.17965 -39.9531
lclavicle -7.31528e-014 -2.54444e-014
lhumerus 53.4922 37.1362 117.95
lradius 9.26905
lwrist -14.9908
lhand -43.9679 46.2408
lfingers 7.12502
lthumb -16.7903 435.535
rfemur -23.7847 -22.0854 11.1218
rtibia 68.4424
rfoot -44.6256 -31.6529
rtoes 3.10797
lfemur -45.689 -10.8573 -33.6778
ltibia 52.1702
lfoot -6.63581 -9.68901
ltoes 2.35214
1906
root 10.0518 15.8933 -2.77433 8.30916 12.2049 12.0145
lowerback 28.1453 3.19002 9.60863
upperback 12.9398 6.8423 7.24086
thorax -0.679895 3.62981 0.649135
lowerneck -20.137 -0.494088 0.0199381
upperneck -1.87042 -0.202323 -8.00543
head 2.59758 -0.442588 -2.49872
rclavicle 3.18055e-015 2.22639e-014
rhumerus 28.3425 62.7932 -94.1806
rradius 38.0083
rwrist -57.1198
rhand -21.5352 -7.22515
rfingers 7.12502
rthumb 4.85761 -37.1495
lclavicle 3.18055e-015 2.22639e-014
lhumerus 53.3255 38.0594 118.481
lradius 10.7999
lwrist -14.5654
lhand -40.4944 40.7412
lfingers 7.12502
lthumb -13.4444 430.287
rfemur -23.4834 -22.373 11.4646
rtibia 68.0468
rfoot -45.477 -31.5892
rtoes -2.1003
lfemur -45.4925 -11.2736 -33.1981
ltibia 52.0468
lfoot -6.98592 -9.47184
ltoes 2.76787
